<svg xmlns="http://www.w3.org/2000/svg" width="732" height="354" viewBox="0 0 732 354">
<rect width="732" height="354" fill="#0d1117" rx="6"/>
<g font-family="Menlo,Monaco,Courier New,monospace" font-size="12" text-rendering="geometricPrecision">
<text x="23" y="24" fill="#c9d1d9" font-weight="normal">✦</text>
<text x="37" y="24" fill="#c9d1d9" font-weight="normal">shapes.md</text>
<text x="121" y="24" fill="#c9d1d9" font-weight="normal">dark</text>
<text x="156" y="24" fill="#c9d1d9" font-weight="normal">│</text>
<text x="170" y="24" fill="#c9d1d9" font-weight="normal">base16-ocean.dark</text>
<text x="296" y="24" fill="#c9d1d9" font-weight="normal">│</text>
<text x="310" y="24" fill="#c9d1d9" font-weight="normal">wrap:on</text>
<text x="366" y="24" fill="#c9d1d9" font-weight="normal">│</text>
<text x="380" y="24" fill="#c9d1d9" font-weight="normal">EDIT</text>
<text x="16" y="38" fill="#c9d1d9" font-weight="normal">│</text>
<text x="30" y="38" fill="#c9d1d9" font-weight="normal">editor</text>
<text x="366" y="38" fill="#c9d1d9" font-weight="normal">│</text>
<text x="380" y="38" fill="#c9d1d9" font-weight="normal">preview</text>
<text x="16" y="52" fill="#c9d1d9" font-weight="normal">│</text>
<text x="30" y="52" fill="#c9d1d9" font-weight="normal">1</text>
<rect x="44" y="41" width="7" height="14" fill="#202430"/><text x="44" y="52" fill="#c9d1d9" font-weight="normal">#</text>
<rect x="58" y="41" width="42" height="14" fill="#202430"/><text x="58" y="52" fill="#c9d1d9" font-weight="normal">Shapes</text>
<text x="366" y="52" fill="#c9d1d9" font-weight="normal">│</text>
<text x="16" y="66" fill="#c9d1d9" font-weight="normal">│</text>
<text x="30" y="66" fill="#c9d1d9" font-weight="normal">2</text>
<text x="366" y="66" fill="#c9d1d9" font-weight="normal">│</text>
<text x="387" y="66" fill="#ffa657" font-weight="normal">▍</text>
<text x="401" y="66" fill="#ffa657" font-weight="normal">Shapes</text>
<text x="16" y="80" fill="#c9d1d9" font-weight="normal">│</text>
<text x="30" y="80" fill="#c9d1d9" font-weight="normal">3</text>
<text x="44" y="80" fill="#c9d1d9" font-weight="normal">```mermaid</text>
<text x="366" y="80" fill="#c9d1d9" font-weight="normal">│</text>
<text x="387" y="80" fill="#ffa657" font-weight="normal">━━━━━━━━━━━━━━━━━━━━━━━━━━━━━━━━━━━━━━━━━━━━━</text>
<text x="16" y="94" fill="#c9d1d9" font-weight="normal">│</text>
<text x="30" y="94" fill="#c9d1d9" font-weight="normal">4</text>
<text x="44" y="94" fill="#c9d1d9" font-weight="normal">graph</text>
<text x="86" y="94" fill="#c9d1d9" font-weight="normal">TD</text>
<text x="366" y="94" fill="#c9d1d9" font-weight="normal">│</text>
<text x="16" y="108" fill="#c9d1d9" font-weight="normal">│</text>
<text x="30" y="108" fill="#c9d1d9" font-weight="normal">5</text>
<text x="72" y="108" fill="#c9d1d9" font-weight="normal">A((Circle))</text>
<text x="156" y="108" fill="#c9d1d9" font-weight="normal">--&gt;</text>
<text x="184" y="108" fill="#c9d1d9" font-weight="normal">B{Diamond}</text>
<text x="366" y="108" fill="#c9d1d9" font-weight="normal">│</text>
<text x="16" y="122" fill="#c9d1d9" font-weight="normal">│</text>
<text x="30" y="122" fill="#c9d1d9" font-weight="normal">6</text>
<text x="72" y="122" fill="#c9d1d9" font-weight="normal">B</text>
<text x="86" y="122" fill="#c9d1d9" font-weight="normal">--&gt;</text>
<text x="114" y="122" fill="#c9d1d9" font-weight="normal">C[Box]</text>
<text x="366" y="122" fill="#c9d1d9" font-weight="normal">│</text>
<text x="387" y="122" fill="#30363d" font-weight="normal">╭</text>
<text x="401" y="122" fill="#8b949e" font-weight="normal">mermaid</text>
<text x="457" y="122" fill="#8b949e" font-weight="normal">diagram</text>
<text x="513" y="122" fill="#30363d" font-weight="normal">──────────────────────────╮</text>
<text x="16" y="136" fill="#c9d1d9" font-weight="normal">│</text>
<text x="30" y="136" fill="#c9d1d9" font-weight="normal">7</text>
<text x="72" y="136" fill="#c9d1d9" font-weight="normal">B</text>
<text x="86" y="136" fill="#c9d1d9" font-weight="normal">--&gt;</text>
<text x="114" y="136" fill="#c9d1d9" font-weight="normal">D[(Cylinder)]</text>
<text x="366" y="136" fill="#c9d1d9" font-weight="normal">│</text>
<text x="401" y="136" fill="#222632" font-weight="normal">⠠</text>
<text x="429" y="136" fill="#222632" font-weight="normal">⠠</text>
<text x="457" y="136" fill="#222632" font-weight="normal">⠠</text>
<text x="485" y="136" fill="#222632" font-weight="normal">⠠</text>
<text x="513" y="136" fill="#222632" font-weight="normal">⠠</text>
<text x="541" y="136" fill="#222632" font-weight="normal">⠠</text>
<text x="569" y="136" fill="#222632" font-weight="normal">⠠</text>
<text x="597" y="136" fill="#222632" font-weight="normal">⠠</text>
<text x="625" y="136" fill="#222632" font-weight="normal">⠠</text>
<text x="653" y="136" fill="#222632" font-weight="normal">⠠</text>
<text x="681" y="136" fill="#222632" font-weight="normal">⠠</text>
<text x="16" y="150" fill="#c9d1d9" font-weight="normal">│</text>
<text x="30" y="150" fill="#c9d1d9" font-weight="normal">8</text>
<text x="72" y="150" fill="#c9d1d9" font-weight="normal">style</text>
<text x="114" y="150" fill="#c9d1d9" font-weight="normal">A</text>
<text x="128" y="150" fill="#c9d1d9" font-weight="normal">fill:#4caf50</text>
<text x="366" y="150" fill="#c9d1d9" font-weight="normal">│</text>
<text x="422" y="150" fill="#4caf50" font-weight="normal">⣠⠖⠊⠉⠉⠉⠉⠙⠲⣄</text>
<text x="16" y="164" fill="#c9d1d9" font-weight="normal">│</text>
<text x="30" y="164" fill="#c9d1d9" font-weight="normal">9</text>
<text x="72" y="164" fill="#c9d1d9" font-weight="normal">style</text>
<text x="114" y="164" fill="#c9d1d9" font-weight="normal">B</text>
<text x="128" y="164" fill="#c9d1d9" font-weight="normal">fill:#ff9800</text>
<text x="366" y="164" fill="#c9d1d9" font-weight="normal">│</text>
<text x="401" y="164" fill="#222632" font-weight="normal">⠠</text>
<text x="422" y="164" fill="#4caf50" font-weight="normal">⡇</text>
<text x="429" y="164" fill="#222632" font-weight="normal">⠠</text>
<rect x="436" y="153" width="42" height="14" fill="#1c222f"/><text x="436" y="164" fill="#4caf50" font-weight="normal">Circle</text>
<text x="485" y="164" fill="#4caf50" font-weight="normal">⢸⠄</text>
<text x="513" y="164" fill="#222632" font-weight="normal">⠠</text>
<text x="541" y="164" fill="#222632" font-weight="normal">⠠</text>
<text x="569" y="164" fill="#222632" font-weight="normal">⠠</text>
<text x="597" y="164" fill="#222632" font-weight="normal">⠠</text>
<text x="625" y="164" fill="#222632" font-weight="normal">⠠</text>
<text x="653" y="164" fill="#222632" font-weight="normal">⠠</text>
<text x="681" y="164" fill="#222632" font-weight="normal">⠠</text>
<text x="16" y="178" fill="#c9d1d9" font-weight="normal">│10</text>
<text x="72" y="178" fill="#c9d1d9" font-weight="normal">style</text>
<text x="114" y="178" fill="#c9d1d9" font-weight="normal">D</text>
<text x="128" y="178" fill="#c9d1d9" font-weight="normal">fill:#2196f3</text>
<text x="366" y="178" fill="#c9d1d9" font-weight="normal">│</text>
<text x="422" y="178" fill="#4caf50" font-weight="normal">⠙⠦⢄⣀⣀⣀⣀⣠⠴⠋</text>
<text x="16" y="192" fill="#c9d1d9" font-weight="normal">│11</text>
<text x="44" y="192" fill="#c9d1d9" font-weight="normal">```</text>
<text x="366" y="192" fill="#c9d1d9" font-weight="normal">│</text>
<text x="401" y="192" fill="#222632" font-weight="normal">⠠</text>
<text x="429" y="192" fill="#222632" font-weight="normal">⠠</text>
<text x="457" y="192" fill="#222632" font-weight="normal">⠠</text>
<text x="485" y="192" fill="#222632" font-weight="normal">⠠</text>
<text x="513" y="192" fill="#222632" font-weight="normal">⠠</text>
<text x="541" y="192" fill="#222632" font-weight="normal">⠠</text>
<text x="569" y="192" fill="#222632" font-weight="normal">⠠</text>
<text x="597" y="192" fill="#222632" font-weight="normal">⠠</text>
<text x="625" y="192" fill="#222632" font-weight="normal">⠠</text>
<text x="653" y="192" fill="#222632" font-weight="normal">⠠</text>
<text x="681" y="192" fill="#222632" font-weight="normal">⠠</text>
<text x="16" y="206" fill="#c9d1d9" font-weight="normal">│12</text>
<text x="366" y="206" fill="#c9d1d9" font-weight="normal">│</text>
<text x="457" y="206" fill="#8b949e" font-weight="normal">│</text>
<text x="16" y="220" fill="#c9d1d9" font-weight="normal">│</text>
<text x="366" y="220" fill="#c9d1d9" font-weight="normal">│</text>
<text x="401" y="220" fill="#222632" font-weight="normal">⠠</text>
<text x="429" y="220" fill="#222632" font-weight="normal">⠠</text>
<text x="457" y="220" fill="#8b949e" font-weight="normal">│</text>
<text x="485" y="220" fill="#222632" font-weight="normal">⠠</text>
<text x="513" y="220" fill="#222632" font-weight="normal">⠠</text>
<text x="541" y="220" fill="#222632" font-weight="normal">⠠</text>
<text x="569" y="220" fill="#222632" font-weight="normal">⠠</text>
<text x="597" y="220" fill="#222632" font-weight="normal">⠠</text>
<text x="625" y="220" fill="#222632" font-weight="normal">⠠</text>
<text x="653" y="220" fill="#222632" font-weight="normal">⠠</text>
<text x="681" y="220" fill="#222632" font-weight="normal">⠠</text>
<text x="16" y="234" fill="#c9d1d9" font-weight="normal">│</text>
<text x="366" y="234" fill="#c9d1d9" font-weight="normal">│</text>
<text x="457" y="234" fill="#8b949e" font-weight="normal">│</text>
<text x="16" y="248" fill="#c9d1d9" font-weight="normal">│</text>
<text x="366" y="248" fill="#c9d1d9" font-weight="normal">│</text>
<text x="401" y="248" fill="#222632" font-weight="normal">⠠</text>
<text x="429" y="248" fill="#222632" font-weight="normal">⠠</text>
<text x="436" y="248" fill="#ff9800" font-weight="normal">⣀⠴⠚⠉⠑⠢⢄⡠</text>
<text x="513" y="248" fill="#222632" font-weight="normal">⠠</text>
<text x="541" y="248" fill="#222632" font-weight="normal">⠠</text>
<text x="569" y="248" fill="#222632" font-weight="normal">⠠</text>
<text x="597" y="248" fill="#222632" font-weight="normal">⠠</text>
<text x="625" y="248" fill="#222632" font-weight="normal">⠠</text>
<text x="653" y="248" fill="#222632" font-weight="normal">⠠</text>
<text x="681" y="248" fill="#222632" font-weight="normal">⠠</text>
<text x="16" y="262" fill="#c9d1d9" font-weight="normal">│</text>
<text x="366" y="262" fill="#c9d1d9" font-weight="normal">│</text>
<text x="422" y="262" fill="#ff9800" font-weight="normal">⠶⣉</text>
<rect x="436" y="251" width="49" height="14" fill="#1c222f"/><text x="436" y="262" fill="#ff9800" font-weight="normal">Diamond</text>
<text x="485" y="262" fill="#ff9800" font-weight="normal">⣉⡷⠆</text>
<text x="16" y="276" fill="#c9d1d9" font-weight="normal">│</text>
<text x="366" y="276" fill="#c9d1d9" font-weight="normal">│</text>
<text x="401" y="276" fill="#222632" font-weight="normal">⠠</text>
<text x="429" y="276" fill="#222632" font-weight="normal">⠠</text>
<text x="436" y="276" fill="#ff9800" font-weight="normal">⠙⠲⢤⣠⡠⠔⠋⠡</text>
<text x="513" y="276" fill="#222632" font-weight="normal">⠠</text>
<text x="541" y="276" fill="#222632" font-weight="normal">⠠</text>
<text x="569" y="276" fill="#222632" font-weight="normal">⠠</text>
<text x="597" y="276" fill="#222632" font-weight="normal">⠠</text>
<text x="625" y="276" fill="#222632" font-weight="normal">⠠</text>
<text x="653" y="276" fill="#222632" font-weight="normal">⠠</text>
<text x="681" y="276" fill="#222632" font-weight="normal">⠠</text>
<text x="16" y="290" fill="#c9d1d9" font-weight="normal">│</text>
<text x="366" y="290" fill="#c9d1d9" font-weight="normal">│</text>
<text x="457" y="290" fill="#ff9800" font-weight="normal">⠈</text>
<text x="16" y="304" fill="#c9d1d9" font-weight="normal">│</text>
<text x="366" y="304" fill="#c9d1d9" font-weight="normal">│</text>
<text x="401" y="304" fill="#222632" font-weight="normal">⠠</text>
<text x="429" y="304" fill="#222632" font-weight="normal">⠠</text>
<text x="457" y="304" fill="#8b949e" font-weight="normal">│</text>
<text x="485" y="304" fill="#222632" font-weight="normal">⠠</text>
<text x="513" y="304" fill="#222632" font-weight="normal">⠠</text>
<text x="541" y="304" fill="#222632" font-weight="normal">⠠</text>
<text x="569" y="304" fill="#222632" font-weight="normal">⠠</text>
<text x="597" y="304" fill="#222632" font-weight="normal">⠠</text>
<text x="625" y="304" fill="#222632" font-weight="normal">⠠</text>
<text x="653" y="304" fill="#222632" font-weight="normal">⠠</text>
<text x="681" y="304" fill="#222632" font-weight="normal">⠠</text>
<text x="23" y="318" fill="#c9d1d9" font-weight="normal">INSERT</text>
<text x="79" y="318" fill="#c9d1d9" font-weight="normal">1:1</text>
<text x="114" y="318" fill="#c9d1d9" font-weight="normal">shapes.md</text>
<text x="184" y="318" fill="#c9d1d9" font-weight="normal">—</text>
<text x="198" y="318" fill="#c9d1d9" font-weight="normal">terra</text>
<text x="254" y="318" fill="#c9d1d9" font-weight="normal">24</text>
<text x="275" y="318" fill="#c9d1d9" font-weight="normal">words</text>
<text x="317" y="318" fill="#c9d1d9" font-weight="normal">·</text>
<text x="331" y="318" fill="#c9d1d9" font-weight="normal">12L</text>
<text x="359" y="318" fill="#c9d1d9" font-weight="normal">·</text>
<text x="373" y="318" fill="#c9d1d9" font-weight="normal">rev:0</text>
<text x="443" y="318" fill="#8b949e" font-weight="normal">┘─┐─────────────────└</text>
</g></svg>