<svg xmlns="http://www.w3.org/2000/svg" width="739" height="466" viewBox="0 0 739 466">
<rect width="739" height="466" fill="#0d1117" rx="6"/>
<g font-family="Menlo,Monaco,Courier New,monospace" font-size="12" text-rendering="geometricPrecision">
<text x="23" y="24" fill="#c9d1d9" font-weight="normal">✦</text>
<text x="37" y="24" fill="#c9d1d9" font-weight="normal">hero.md</text>
<text x="107" y="24" fill="#c9d1d9" font-weight="normal">dark</text>
<text x="142" y="24" fill="#c9d1d9" font-weight="normal">│</text>
<text x="156" y="24" fill="#c9d1d9" font-weight="normal">base16-ocean.dark</text>
<text x="282" y="24" fill="#c9d1d9" font-weight="normal">│</text>
<text x="296" y="24" fill="#c9d1d9" font-weight="normal">wrap:on</text>
<text x="352" y="24" fill="#c9d1d9" font-weight="normal">│</text>
<text x="366" y="24" fill="#c9d1d9" font-weight="normal">EDIT</text>
<text x="16" y="38" fill="#c9d1d9" font-weight="normal">│</text>
<text x="30" y="38" fill="#c9d1d9" font-weight="normal">editor</text>
<text x="366" y="38" fill="#c9d1d9" font-weight="normal">│</text>
<text x="380" y="38" fill="#c9d1d9" font-weight="normal">preview</text>
<text x="16" y="52" fill="#c9d1d9" font-weight="normal">│</text>
<text x="30" y="52" fill="#c9d1d9" font-weight="normal">1</text>
<rect x="44" y="41" width="7" height="14" fill="#202430"/><text x="44" y="52" fill="#c9d1d9" font-weight="normal">#</text>
<rect x="58" y="41" width="35" height="14" fill="#202430"/><text x="58" y="52" fill="#c9d1d9" font-weight="normal">Terra</text>
<text x="366" y="52" fill="#c9d1d9" font-weight="normal">│</text>
<text x="401" y="52" fill="#222632" font-weight="normal">⠠</text>
<text x="429" y="52" fill="#222632" font-weight="normal">⠠</text>
<text x="457" y="52" fill="#222632" font-weight="normal">⠠</text>
<text x="485" y="52" fill="#222632" font-weight="normal">⠠</text>
<text x="513" y="52" fill="#222632" font-weight="normal">⠠</text>
<text x="541" y="52" fill="#222632" font-weight="normal">⠠</text>
<text x="569" y="52" fill="#222632" font-weight="normal">⠠</text>
<text x="597" y="52" fill="#222632" font-weight="normal">⠠</text>
<text x="625" y="52" fill="#222632" font-weight="normal">⠠</text>
<text x="653" y="52" fill="#222632" font-weight="normal">⠠</text>
<text x="681" y="52" fill="#222632" font-weight="normal">⠠</text>
<text x="16" y="66" fill="#c9d1d9" font-weight="normal">│</text>
<text x="30" y="66" fill="#c9d1d9" font-weight="normal">2</text>
<text x="366" y="66" fill="#c9d1d9" font-weight="normal">│</text>
<text x="387" y="66" fill="#ffa657" font-weight="normal">▍</text>
<text x="401" y="66" fill="#ffa657" font-weight="normal">Terra</text>
<text x="16" y="80" fill="#c9d1d9" font-weight="normal">│</text>
<text x="30" y="80" fill="#c9d1d9" font-weight="normal">3</text>
<text x="44" y="80" fill="#c9d1d9" font-weight="normal">A</text>
<text x="58" y="80" fill="#c9d1d9" font-weight="normal">blazing-fast</text>
<text x="149" y="80" fill="#c9d1d9" font-weight="normal">Markdown</text>
<text x="212" y="80" fill="#c9d1d9" font-weight="normal">editor</text>
<text x="261" y="80" fill="#c9d1d9" font-weight="normal">that</text>
<text x="296" y="80" fill="#c9d1d9" font-weight="normal">lives</text>
<text x="338" y="80" fill="#c9d1d9" font-weight="normal">in</text>
<text x="366" y="80" fill="#c9d1d9" font-weight="normal">│</text>
<text x="387" y="80" fill="#ffa657" font-weight="normal">━━</text>
<text x="401" y="80" fill="#222632" font-weight="normal">⠠</text>
<text x="408" y="80" fill="#ffa657" font-weight="normal">━━━</text>
<text x="429" y="80" fill="#222632" font-weight="normal">⠠</text>
<text x="436" y="80" fill="#ffa657" font-weight="normal">━━━</text>
<text x="457" y="80" fill="#222632" font-weight="normal">⠠</text>
<text x="464" y="80" fill="#ffa657" font-weight="normal">━━━</text>
<text x="485" y="80" fill="#222632" font-weight="normal">⠠</text>
<text x="492" y="80" fill="#ffa657" font-weight="normal">━━━</text>
<text x="513" y="80" fill="#222632" font-weight="normal">⠠</text>
<text x="520" y="80" fill="#ffa657" font-weight="normal">━━━</text>
<text x="541" y="80" fill="#222632" font-weight="normal">⠠</text>
<text x="548" y="80" fill="#ffa657" font-weight="normal">━━━</text>
<text x="569" y="80" fill="#222632" font-weight="normal">⠠</text>
<text x="576" y="80" fill="#ffa657" font-weight="normal">━━━</text>
<text x="597" y="80" fill="#222632" font-weight="normal">⠠</text>
<text x="604" y="80" fill="#ffa657" font-weight="normal">━━━</text>
<text x="625" y="80" fill="#222632" font-weight="normal">⠠</text>
<text x="632" y="80" fill="#ffa657" font-weight="normal">━━━</text>
<text x="653" y="80" fill="#222632" font-weight="normal">⠠</text>
<text x="660" y="80" fill="#ffa657" font-weight="normal">━━━</text>
<text x="681" y="80" fill="#222632" font-weight="normal">⠠</text>
<text x="688" y="80" fill="#ffa657" font-weight="normal">━━</text>
<text x="16" y="94" fill="#c9d1d9" font-weight="normal">│</text>
<text x="44" y="94" fill="#c9d1d9" font-weight="normal">your</text>
<text x="79" y="94" fill="#c9d1d9" font-weight="normal">terminal.</text>
<text x="366" y="94" fill="#c9d1d9" font-weight="normal">│</text>
<text x="16" y="108" fill="#c9d1d9" font-weight="normal">│</text>
<text x="30" y="108" fill="#c9d1d9" font-weight="normal">4</text>
<text x="366" y="108" fill="#c9d1d9" font-weight="normal">│</text>
<text x="387" y="108" fill="#c9d1d9" font-weight="normal">A</text>
<text x="401" y="108" fill="#222632" font-weight="normal">⠠</text>
<text x="408" y="108" fill="#c9d1d9" font-weight="normal">laz</text>
<text x="429" y="108" fill="#222632" font-weight="normal">⠠</text>
<text x="436" y="108" fill="#c9d1d9" font-weight="normal">ng-</text>
<text x="457" y="108" fill="#222632" font-weight="normal">⠠</text>
<text x="464" y="108" fill="#c9d1d9" font-weight="normal">ast</text>
<text x="485" y="108" fill="#222632" font-weight="normal">⠠</text>
<text x="492" y="108" fill="#c9d1d9" font-weight="normal">Mar</text>
<text x="513" y="108" fill="#222632" font-weight="normal">⠠</text>
<text x="520" y="108" fill="#c9d1d9" font-weight="normal">dow</text>
<text x="541" y="108" fill="#222632" font-weight="normal">⠠</text>
<text x="555" y="108" fill="#c9d1d9" font-weight="normal">ed</text>
<text x="569" y="108" fill="#222632" font-weight="normal">⠠</text>
<text x="576" y="108" fill="#c9d1d9" font-weight="normal">tor</text>
<text x="597" y="108" fill="#222632" font-weight="normal">⠠</text>
<text x="604" y="108" fill="#c9d1d9" font-weight="normal">tha</text>
<text x="625" y="108" fill="#222632" font-weight="normal">⠠</text>
<text x="639" y="108" fill="#c9d1d9" font-weight="normal">li</text>
<text x="653" y="108" fill="#222632" font-weight="normal">⠠</text>
<text x="660" y="108" fill="#c9d1d9" font-weight="normal">es</text>
<text x="681" y="108" fill="#222632" font-weight="normal">⠠</text>
<text x="688" y="108" fill="#c9d1d9" font-weight="normal">n</text>
<text x="16" y="122" fill="#c9d1d9" font-weight="normal">│</text>
<text x="30" y="122" fill="#c9d1d9" font-weight="normal">5</text>
<text x="44" y="122" fill="#c9d1d9" font-weight="normal">Edit</text>
<text x="79" y="122" fill="#c9d1d9" font-weight="normal">on</text>
<text x="100" y="122" fill="#c9d1d9" font-weight="normal">the</text>
<text x="128" y="122" fill="#c9d1d9" font-weight="normal">left.</text>
<text x="170" y="122" fill="#c9d1d9" font-weight="normal">Watch</text>
<text x="212" y="122" fill="#c9d1d9" font-weight="normal">it</text>
<text x="233" y="122" fill="#c9d1d9" font-weight="normal">render</text>
<text x="282" y="122" fill="#c9d1d9" font-weight="normal">on</text>
<text x="303" y="122" fill="#c9d1d9" font-weight="normal">the</text>
<text x="331" y="122" fill="#c9d1d9" font-weight="normal">righ</text>
<text x="366" y="122" fill="#c9d1d9" font-weight="normal">│</text>
<text x="387" y="122" fill="#c9d1d9" font-weight="normal">your</text>
<text x="422" y="122" fill="#c9d1d9" font-weight="normal">terminal.</text>
<text x="16" y="136" fill="#c9d1d9" font-weight="normal">│</text>
<text x="44" y="136" fill="#c9d1d9" font-weight="normal">t.</text>
<text x="65" y="136" fill="#c9d1d9" font-weight="normal">**No</text>
<text x="100" y="136" fill="#c9d1d9" font-weight="normal">browser.</text>
<text x="163" y="136" fill="#c9d1d9" font-weight="normal">No</text>
<text x="184" y="136" fill="#c9d1d9" font-weight="normal">Electron.</text>
<text x="254" y="136" fill="#c9d1d9" font-weight="normal">Just</text>
<text x="289" y="136" fill="#c9d1d9" font-weight="normal">text.**</text>
<text x="366" y="136" fill="#c9d1d9" font-weight="normal">│</text>
<text x="401" y="136" fill="#222632" font-weight="normal">⠠</text>
<text x="429" y="136" fill="#222632" font-weight="normal">⠠</text>
<text x="457" y="136" fill="#222632" font-weight="normal">⠠</text>
<text x="485" y="136" fill="#222632" font-weight="normal">⠠</text>
<text x="513" y="136" fill="#222632" font-weight="normal">⠠</text>
<text x="541" y="136" fill="#222632" font-weight="normal">⠠</text>
<text x="569" y="136" fill="#222632" font-weight="normal">⠠</text>
<text x="597" y="136" fill="#222632" font-weight="normal">⠠</text>
<text x="625" y="136" fill="#222632" font-weight="normal">⠠</text>
<text x="653" y="136" fill="#222632" font-weight="normal">⠠</text>
<text x="681" y="136" fill="#222632" font-weight="normal">⠠</text>
<text x="16" y="150" fill="#c9d1d9" font-weight="normal">│</text>
<text x="30" y="150" fill="#c9d1d9" font-weight="normal">6</text>
<text x="366" y="150" fill="#c9d1d9" font-weight="normal">│</text>
<text x="387" y="150" fill="#c9d1d9" font-weight="normal">Edit</text>
<text x="422" y="150" fill="#c9d1d9" font-weight="normal">on</text>
<text x="443" y="150" fill="#c9d1d9" font-weight="normal">the</text>
<text x="471" y="150" fill="#c9d1d9" font-weight="normal">left.</text>
<text x="513" y="150" fill="#c9d1d9" font-weight="normal">Watch</text>
<text x="555" y="150" fill="#c9d1d9" font-weight="normal">it</text>
<text x="576" y="150" fill="#c9d1d9" font-weight="normal">render</text>
<text x="625" y="150" fill="#c9d1d9" font-weight="normal">on</text>
<text x="646" y="150" fill="#c9d1d9" font-weight="normal">the</text>
<text x="674" y="150" fill="#c9d1d9" font-weight="normal">righ</text>
<text x="16" y="164" fill="#c9d1d9" font-weight="normal">│</text>
<text x="30" y="164" fill="#c9d1d9" font-weight="normal">7</text>
<text x="44" y="164" fill="#c9d1d9" font-weight="normal">##</text>
<text x="65" y="164" fill="#c9d1d9" font-weight="normal">Why</text>
<text x="93" y="164" fill="#c9d1d9" font-weight="normal">you'll</text>
<text x="142" y="164" fill="#c9d1d9" font-weight="normal">like</text>
<text x="177" y="164" fill="#c9d1d9" font-weight="normal">it</text>
<text x="366" y="164" fill="#c9d1d9" font-weight="normal">│</text>
<text x="387" y="164" fill="#c9d1d9" font-weight="normal">t.</text>
<text x="401" y="164" fill="#222632" font-weight="normal">⠠</text>
<text x="408" y="164" fill="#f5f7fa" font-weight="normal">No</text>
<text x="429" y="164" fill="#222632" font-weight="normal">⠠</text>
<text x="436" y="164" fill="#f5f7fa" font-weight="normal">row</text>
<text x="457" y="164" fill="#222632" font-weight="normal">⠠</text>
<text x="464" y="164" fill="#f5f7fa" font-weight="normal">er.</text>
<text x="485" y="164" fill="#222632" font-weight="normal">⠠</text>
<text x="492" y="164" fill="#f5f7fa" font-weight="normal">No</text>
<text x="513" y="164" fill="#222632" font-weight="normal">⠠</text>
<text x="520" y="164" fill="#f5f7fa" font-weight="normal">lec</text>
<text x="541" y="164" fill="#222632" font-weight="normal">⠠</text>
<text x="548" y="164" fill="#f5f7fa" font-weight="normal">ron</text>
<text x="569" y="164" fill="#222632" font-weight="normal">⠠</text>
<text x="583" y="164" fill="#f5f7fa" font-weight="normal">Ju</text>
<text x="597" y="164" fill="#222632" font-weight="normal">⠠</text>
<text x="604" y="164" fill="#f5f7fa" font-weight="normal">t</text>
<text x="618" y="164" fill="#f5f7fa" font-weight="normal">t</text>
<text x="625" y="164" fill="#222632" font-weight="normal">⠠</text>
<text x="632" y="164" fill="#f5f7fa" font-weight="normal">xt.</text>
<text x="653" y="164" fill="#222632" font-weight="normal">⠠</text>
<text x="681" y="164" fill="#222632" font-weight="normal">⠠</text>
<text x="16" y="178" fill="#c9d1d9" font-weight="normal">│</text>
<text x="30" y="178" fill="#c9d1d9" font-weight="normal">8</text>
<text x="366" y="178" fill="#c9d1d9" font-weight="normal">│</text>
<text x="16" y="192" fill="#c9d1d9" font-weight="normal">│</text>
<text x="30" y="192" fill="#c9d1d9" font-weight="normal">9</text>
<text x="44" y="192" fill="#c9d1d9" font-weight="normal">-</text>
<text x="58" y="192" fill="#c9d1d9" font-weight="normal">⚡</text>
<text x="79" y="192" fill="#c9d1d9" font-weight="normal">**Instant**</text>
<text x="163" y="192" fill="#c9d1d9" font-weight="normal">—</text>
<text x="177" y="192" fill="#c9d1d9" font-weight="normal">opens</text>
<text x="219" y="192" fill="#c9d1d9" font-weight="normal">in</text>
<text x="240" y="192" fill="#c9d1d9" font-weight="normal">10ms,</text>
<text x="282" y="192" fill="#c9d1d9" font-weight="normal">renders</text>
<text x="338" y="192" fill="#c9d1d9" font-weight="normal">as</text>
<text x="359" y="192" fill="#c9d1d9" font-weight="normal">y│</text>
<text x="401" y="192" fill="#222632" font-weight="normal">⠠</text>
<text x="429" y="192" fill="#222632" font-weight="normal">⠠</text>
<text x="457" y="192" fill="#222632" font-weight="normal">⠠</text>
<text x="485" y="192" fill="#222632" font-weight="normal">⠠</text>
<text x="513" y="192" fill="#222632" font-weight="normal">⠠</text>
<text x="541" y="192" fill="#222632" font-weight="normal">⠠</text>
<text x="569" y="192" fill="#222632" font-weight="normal">⠠</text>
<text x="597" y="192" fill="#222632" font-weight="normal">⠠</text>
<text x="625" y="192" fill="#222632" font-weight="normal">⠠</text>
<text x="653" y="192" fill="#222632" font-weight="normal">⠠</text>
<text x="681" y="192" fill="#222632" font-weight="normal">⠠</text>
<text x="16" y="206" fill="#c9d1d9" font-weight="normal">│</text>
<text x="44" y="206" fill="#c9d1d9" font-weight="normal">you</text>
<text x="72" y="206" fill="#c9d1d9" font-weight="normal">type</text>
<text x="366" y="206" fill="#c9d1d9" font-weight="normal">│</text>
<text x="387" y="206" fill="#79c0ff" font-weight="normal">Why</text>
<text x="415" y="206" fill="#79c0ff" font-weight="normal">you'll</text>
<text x="464" y="206" fill="#79c0ff" font-weight="normal">like</text>
<text x="499" y="206" fill="#79c0ff" font-weight="normal">it</text>
<text x="16" y="220" fill="#c9d1d9" font-weight="normal">│10</text>
<text x="44" y="220" fill="#c9d1d9" font-weight="normal">-</text>
<text x="58" y="220" fill="#c9d1d9" font-weight="normal">🎨</text>
<text x="79" y="220" fill="#c9d1d9" font-weight="normal">**Beautiful**</text>
<text x="177" y="220" fill="#c9d1d9" font-weight="normal">—</text>
<text x="191" y="220" fill="#c9d1d9" font-weight="normal">syntax-highlighted</text>
<text x="324" y="220" fill="#c9d1d9" font-weight="normal">code,</text>
<text x="366" y="220" fill="#c9d1d9" font-weight="normal">│</text>
<text x="387" y="220" fill="#79c0ff" font-weight="normal">──</text>
<text x="401" y="220" fill="#222632" font-weight="normal">⠠</text>
<text x="408" y="220" fill="#79c0ff" font-weight="normal">───</text>
<text x="429" y="220" fill="#222632" font-weight="normal">⠠</text>
<text x="436" y="220" fill="#79c0ff" font-weight="normal">───</text>
<text x="457" y="220" fill="#222632" font-weight="normal">⠠</text>
<text x="464" y="220" fill="#79c0ff" font-weight="normal">───</text>
<text x="485" y="220" fill="#222632" font-weight="normal">⠠</text>
<text x="492" y="220" fill="#79c0ff" font-weight="normal">───</text>
<text x="513" y="220" fill="#222632" font-weight="normal">⠠</text>
<text x="520" y="220" fill="#79c0ff" font-weight="normal">───</text>
<text x="541" y="220" fill="#222632" font-weight="normal">⠠</text>
<text x="548" y="220" fill="#79c0ff" font-weight="normal">───</text>
<text x="569" y="220" fill="#222632" font-weight="normal">⠠</text>
<text x="576" y="220" fill="#79c0ff" font-weight="normal">───</text>
<text x="597" y="220" fill="#222632" font-weight="normal">⠠</text>
<text x="604" y="220" fill="#79c0ff" font-weight="normal">───</text>
<text x="625" y="220" fill="#222632" font-weight="normal">⠠</text>
<text x="632" y="220" fill="#79c0ff" font-weight="normal">───</text>
<text x="653" y="220" fill="#222632" font-weight="normal">⠠</text>
<text x="660" y="220" fill="#79c0ff" font-weight="normal">───</text>
<text x="681" y="220" fill="#222632" font-weight="normal">⠠</text>
<text x="688" y="220" fill="#79c0ff" font-weight="normal">──</text>
<text x="16" y="234" fill="#c9d1d9" font-weight="normal">│</text>
<text x="51" y="234" fill="#c9d1d9" font-weight="normal">boxed</text>
<text x="93" y="234" fill="#c9d1d9" font-weight="normal">tables,</text>
<text x="149" y="234" fill="#c9d1d9" font-weight="normal">live</text>
<text x="184" y="234" fill="#c9d1d9" font-weight="normal">diagrams</text>
<text x="366" y="234" fill="#c9d1d9" font-weight="normal">│</text>
<text x="16" y="248" fill="#c9d1d9" font-weight="normal">│11</text>
<text x="44" y="248" fill="#c9d1d9" font-weight="normal">-</text>
<text x="58" y="248" fill="#c9d1d9" font-weight="normal">⌨️</text>
<text x="86" y="248" fill="#c9d1d9" font-weight="normal">**Powerful**</text>
<text x="177" y="248" fill="#c9d1d9" font-weight="normal">—</text>
<text x="191" y="248" fill="#c9d1d9" font-weight="normal">search,</text>
<text x="247" y="248" fill="#c9d1d9" font-weight="normal">outline,</text>
<text x="310" y="248" fill="#c9d1d9" font-weight="normal">undo,</text>
<text x="352" y="248" fill="#c9d1d9" font-weight="normal">sm</text>
<text x="373" y="248" fill="#c9d1d9" font-weight="normal">│</text>
<text x="394" y="248" fill="#ffa657" font-weight="normal">•</text>
<text x="408" y="248" fill="#222632" font-weight="normal">⠠</text>
<text x="415" y="248" fill="#c9d1d9" font-weight="normal">⚡</text>
<text x="436" y="248" fill="#222632" font-weight="normal">⠠</text>
<text x="443" y="248" fill="#f5f7fa" font-weight="normal">nst</text>
<text x="464" y="248" fill="#222632" font-weight="normal">⠠</text>
<text x="471" y="248" fill="#f5f7fa" font-weight="normal">nt</text>
<text x="492" y="248" fill="#222632" font-weight="normal">⠠</text>
<text x="506" y="248" fill="#c9d1d9" font-weight="normal">op</text>
<text x="520" y="248" fill="#222632" font-weight="normal">⠠</text>
<text x="527" y="248" fill="#c9d1d9" font-weight="normal">ns</text>
<text x="548" y="248" fill="#222632" font-weight="normal">⠠</text>
<text x="555" y="248" fill="#c9d1d9" font-weight="normal">n</text>
<text x="569" y="248" fill="#c9d1d9" font-weight="normal">1</text>
<text x="576" y="248" fill="#222632" font-weight="normal">⠠</text>
<text x="583" y="248" fill="#c9d1d9" font-weight="normal">ms,</text>
<text x="604" y="248" fill="#222632" font-weight="normal">⠠</text>
<text x="611" y="248" fill="#c9d1d9" font-weight="normal">ren</text>
<text x="632" y="248" fill="#222632" font-weight="normal">⠠</text>
<text x="639" y="248" fill="#c9d1d9" font-weight="normal">ers</text>
<text x="660" y="248" fill="#222632" font-weight="normal">⠠</text>
<text x="667" y="248" fill="#c9d1d9" font-weight="normal">as</text>
<text x="688" y="248" fill="#222632" font-weight="normal">⠠</text>
<text x="695" y="248" fill="#c9d1d9" font-weight="normal">ou</text>
<text x="16" y="262" fill="#c9d1d9" font-weight="normal">│</text>
<text x="44" y="262" fill="#c9d1d9" font-weight="normal">rt</text>
<text x="65" y="262" fill="#c9d1d9" font-weight="normal">lists,</text>
<text x="114" y="262" fill="#c9d1d9" font-weight="normal">mouse</text>
<text x="156" y="262" fill="#c9d1d9" font-weight="normal">support</text>
<text x="366" y="262" fill="#c9d1d9" font-weight="normal">│</text>
<text x="415" y="262" fill="#c9d1d9" font-weight="normal">type</text>
<text x="16" y="276" fill="#c9d1d9" font-weight="normal">│12</text>
<text x="44" y="276" fill="#c9d1d9" font-weight="normal">-</text>
<text x="58" y="276" fill="#c9d1d9" font-weight="normal">🖼️</text>
<text x="86" y="276" fill="#c9d1d9" font-weight="normal">**Diagrams**</text>
<text x="177" y="276" fill="#c9d1d9" font-weight="normal">—</text>
<text x="191" y="276" fill="#c9d1d9" font-weight="normal">Mermaid</text>
<text x="247" y="276" fill="#c9d1d9" font-weight="normal">&amp;</text>
<text x="261" y="276" fill="#c9d1d9" font-weight="normal">PlantUML</text>
<text x="324" y="276" fill="#c9d1d9" font-weight="normal">render</text>
<text x="373" y="276" fill="#c9d1d9" font-weight="normal">│</text>
<text x="394" y="276" fill="#ffa657" font-weight="normal">•</text>
<text x="408" y="276" fill="#222632" font-weight="normal">⠠</text>
<text x="415" y="276" fill="#c9d1d9" font-weight="normal">🎨</text>
<text x="436" y="276" fill="#222632" font-weight="normal">⠠</text>
<text x="443" y="276" fill="#f5f7fa" font-weight="normal">eau</text>
<text x="464" y="276" fill="#222632" font-weight="normal">⠠</text>
<text x="471" y="276" fill="#f5f7fa" font-weight="normal">ifu</text>
<text x="492" y="276" fill="#222632" font-weight="normal">⠠</text>
<text x="506" y="276" fill="#c9d1d9" font-weight="normal">—</text>
<text x="520" y="276" fill="#222632" font-weight="normal">⠠</text>
<text x="527" y="276" fill="#c9d1d9" font-weight="normal">ynt</text>
<text x="548" y="276" fill="#222632" font-weight="normal">⠠</text>
<text x="555" y="276" fill="#c9d1d9" font-weight="normal">x-h</text>
<text x="576" y="276" fill="#222632" font-weight="normal">⠠</text>
<text x="583" y="276" fill="#c9d1d9" font-weight="normal">ghl</text>
<text x="604" y="276" fill="#222632" font-weight="normal">⠠</text>
<text x="611" y="276" fill="#c9d1d9" font-weight="normal">ght</text>
<text x="632" y="276" fill="#222632" font-weight="normal">⠠</text>
<text x="639" y="276" fill="#c9d1d9" font-weight="normal">d</text>
<text x="653" y="276" fill="#c9d1d9" font-weight="normal">c</text>
<text x="660" y="276" fill="#222632" font-weight="normal">⠠</text>
<text x="667" y="276" fill="#c9d1d9" font-weight="normal">de,</text>
<text x="688" y="276" fill="#222632" font-weight="normal">⠠</text>
<text x="695" y="276" fill="#c9d1d9" font-weight="normal">bo</text>
<text x="16" y="290" fill="#c9d1d9" font-weight="normal">│</text>
<text x="44" y="290" fill="#c9d1d9" font-weight="normal">natively</text>
<text x="107" y="290" fill="#c9d1d9" font-weight="normal">in</text>
<text x="128" y="290" fill="#c9d1d9" font-weight="normal">the</text>
<text x="156" y="290" fill="#c9d1d9" font-weight="normal">terminal</text>
<text x="366" y="290" fill="#c9d1d9" font-weight="normal">│</text>
<text x="408" y="290" fill="#c9d1d9" font-weight="normal">xed</text>
<text x="436" y="290" fill="#c9d1d9" font-weight="normal">tables,</text>
<text x="492" y="290" fill="#c9d1d9" font-weight="normal">live</text>
<text x="527" y="290" fill="#c9d1d9" font-weight="normal">diagrams</text>
<text x="16" y="304" fill="#c9d1d9" font-weight="normal">│13</text>
<text x="366" y="304" fill="#c9d1d9" font-weight="normal">│</text>
<text x="387" y="304" fill="#ffa657" font-weight="normal">•</text>
<text x="401" y="304" fill="#222632" font-weight="normal">⠠</text>
<text x="408" y="304" fill="#c9d1d9" font-weight="normal">⌨</text>
<text x="422" y="304" fill="#f5f7fa" font-weight="normal">P</text>
<text x="429" y="304" fill="#222632" font-weight="normal">⠠</text>
<text x="436" y="304" fill="#f5f7fa" font-weight="normal">wer</text>
<text x="457" y="304" fill="#222632" font-weight="normal">⠠</text>
<text x="464" y="304" fill="#f5f7fa" font-weight="normal">ul</text>
<text x="485" y="304" fill="#222632" font-weight="normal">⠠</text>
<text x="499" y="304" fill="#c9d1d9" font-weight="normal">se</text>
<text x="513" y="304" fill="#222632" font-weight="normal">⠠</text>
<text x="520" y="304" fill="#c9d1d9" font-weight="normal">rch</text>
<text x="541" y="304" fill="#222632" font-weight="normal">⠠</text>
<text x="555" y="304" fill="#c9d1d9" font-weight="normal">ou</text>
<text x="569" y="304" fill="#222632" font-weight="normal">⠠</text>
<text x="576" y="304" fill="#c9d1d9" font-weight="normal">lin</text>
<text x="597" y="304" fill="#222632" font-weight="normal">⠠</text>
<text x="604" y="304" fill="#c9d1d9" font-weight="normal">,</text>
<text x="618" y="304" fill="#c9d1d9" font-weight="normal">u</text>
<text x="625" y="304" fill="#222632" font-weight="normal">⠠</text>
<text x="632" y="304" fill="#c9d1d9" font-weight="normal">do,</text>
<text x="653" y="304" fill="#222632" font-weight="normal">⠠</text>
<text x="660" y="304" fill="#c9d1d9" font-weight="normal">sma</text>
<text x="681" y="304" fill="#222632" font-weight="normal">⠠</text>
<text x="688" y="304" fill="#c9d1d9" font-weight="normal">t</text>
<text x="16" y="318" fill="#c9d1d9" font-weight="normal">│14</text>
<text x="44" y="318" fill="#c9d1d9" font-weight="normal">##</text>
<text x="65" y="318" fill="#c9d1d9" font-weight="normal">Live</text>
<text x="100" y="318" fill="#c9d1d9" font-weight="normal">preview</text>
<text x="156" y="318" fill="#c9d1d9" font-weight="normal">that</text>
<text x="191" y="318" fill="#c9d1d9" font-weight="normal">doesn't</text>
<text x="247" y="318" fill="#c9d1d9" font-weight="normal">suck</text>
<text x="366" y="318" fill="#c9d1d9" font-weight="normal">│</text>
<text x="408" y="318" fill="#c9d1d9" font-weight="normal">lists,</text>
<text x="457" y="318" fill="#c9d1d9" font-weight="normal">mouse</text>
<text x="499" y="318" fill="#c9d1d9" font-weight="normal">support</text>
<text x="16" y="332" fill="#c9d1d9" font-weight="normal">│15</text>
<text x="366" y="332" fill="#c9d1d9" font-weight="normal">│</text>
<text x="387" y="332" fill="#ffa657" font-weight="normal">•</text>
<text x="401" y="332" fill="#222632" font-weight="normal">⠠</text>
<text x="408" y="332" fill="#c9d1d9" font-weight="normal">🖼</text>
<text x="422" y="332" fill="#f5f7fa" font-weight="normal">D</text>
<text x="429" y="332" fill="#222632" font-weight="normal">⠠</text>
<text x="436" y="332" fill="#f5f7fa" font-weight="normal">agr</text>
<text x="457" y="332" fill="#222632" font-weight="normal">⠠</text>
<text x="464" y="332" fill="#f5f7fa" font-weight="normal">ms</text>
<text x="485" y="332" fill="#222632" font-weight="normal">⠠</text>
<text x="499" y="332" fill="#c9d1d9" font-weight="normal">Me</text>
<text x="513" y="332" fill="#222632" font-weight="normal">⠠</text>
<text x="520" y="332" fill="#c9d1d9" font-weight="normal">mai</text>
<text x="541" y="332" fill="#222632" font-weight="normal">⠠</text>
<text x="555" y="332" fill="#c9d1d9" font-weight="normal">&amp;</text>
<text x="569" y="332" fill="#222632" font-weight="normal">⠠</text>
<text x="576" y="332" fill="#c9d1d9" font-weight="normal">lan</text>
<text x="597" y="332" fill="#222632" font-weight="normal">⠠</text>
<text x="604" y="332" fill="#c9d1d9" font-weight="normal">UML</text>
<text x="625" y="332" fill="#222632" font-weight="normal">⠠</text>
<text x="632" y="332" fill="#c9d1d9" font-weight="normal">ren</text>
<text x="653" y="332" fill="#222632" font-weight="normal">⠠</text>
<text x="660" y="332" fill="#c9d1d9" font-weight="normal">er</text>
<text x="681" y="332" fill="#222632" font-weight="normal">⠠</text>
<text x="688" y="332" fill="#c9d1d9" font-weight="normal">at</text>
<text x="16" y="346" fill="#c9d1d9" font-weight="normal">│16</text>
<text x="44" y="346" fill="#c9d1d9" font-weight="normal">```rust</text>
<text x="366" y="346" fill="#c9d1d9" font-weight="normal">│</text>
<text x="408" y="346" fill="#c9d1d9" font-weight="normal">ively</text>
<text x="450" y="346" fill="#c9d1d9" font-weight="normal">in</text>
<text x="471" y="346" fill="#c9d1d9" font-weight="normal">the</text>
<text x="499" y="346" fill="#c9d1d9" font-weight="normal">terminal</text>
<text x="16" y="360" fill="#c9d1d9" font-weight="normal">│17</text>
<text x="44" y="360" fill="#c9d1d9" font-weight="normal">fn</text>
<text x="65" y="360" fill="#c9d1d9" font-weight="normal">main()</text>
<text x="114" y="360" fill="#c9d1d9" font-weight="normal">{</text>
<text x="366" y="360" fill="#c9d1d9" font-weight="normal">│</text>
<text x="401" y="360" fill="#222632" font-weight="normal">⠠</text>
<text x="429" y="360" fill="#222632" font-weight="normal">⠠</text>
<text x="457" y="360" fill="#222632" font-weight="normal">⠠</text>
<text x="485" y="360" fill="#222632" font-weight="normal">⠠</text>
<text x="513" y="360" fill="#222632" font-weight="normal">⠠</text>
<text x="541" y="360" fill="#222632" font-weight="normal">⠠</text>
<text x="569" y="360" fill="#222632" font-weight="normal">⠠</text>
<text x="597" y="360" fill="#222632" font-weight="normal">⠠</text>
<text x="625" y="360" fill="#222632" font-weight="normal">⠠</text>
<text x="653" y="360" fill="#222632" font-weight="normal">⠠</text>
<text x="681" y="360" fill="#222632" font-weight="normal">⠠</text>
<text x="16" y="374" fill="#c9d1d9" font-weight="normal">│18</text>
<text x="72" y="374" fill="#c9d1d9" font-weight="normal">let</text>
<text x="100" y="374" fill="#c9d1d9" font-weight="normal">answer</text>
<text x="149" y="374" fill="#c9d1d9" font-weight="normal">=</text>
<text x="163" y="374" fill="#c9d1d9" font-weight="normal">42;</text>
<text x="366" y="374" fill="#c9d1d9" font-weight="normal">│</text>
<text x="16" y="388" fill="#c9d1d9" font-weight="normal">│19</text>
<text x="72" y="388" fill="#c9d1d9" font-weight="normal">println!("hello,</text>
<text x="191" y="388" fill="#c9d1d9" font-weight="normal">world");</text>
<text x="366" y="388" fill="#c9d1d9" font-weight="normal">│</text>
<text x="387" y="388" fill="#79c0ff" font-weight="normal">Li</text>
<text x="401" y="388" fill="#222632" font-weight="normal">⠠</text>
<text x="408" y="388" fill="#79c0ff" font-weight="normal">e</text>
<text x="422" y="388" fill="#79c0ff" font-weight="normal">p</text>
<text x="429" y="388" fill="#222632" font-weight="normal">⠠</text>
<text x="436" y="388" fill="#79c0ff" font-weight="normal">evi</text>
<text x="457" y="388" fill="#222632" font-weight="normal">⠠</text>
<text x="464" y="388" fill="#79c0ff" font-weight="normal">w</text>
<text x="478" y="388" fill="#79c0ff" font-weight="normal">t</text>
<text x="485" y="388" fill="#222632" font-weight="normal">⠠</text>
<text x="492" y="388" fill="#79c0ff" font-weight="normal">at</text>
<text x="513" y="388" fill="#222632" font-weight="normal">⠠</text>
<text x="520" y="388" fill="#79c0ff" font-weight="normal">oes</text>
<text x="541" y="388" fill="#222632" font-weight="normal">⠠</text>
<text x="548" y="388" fill="#79c0ff" font-weight="normal">'t</text>
<text x="569" y="388" fill="#222632" font-weight="normal">⠠</text>
<text x="576" y="388" fill="#79c0ff" font-weight="normal">uck</text>
<text x="597" y="388" fill="#222632" font-weight="normal">⠠</text>
<text x="625" y="388" fill="#222632" font-weight="normal">⠠</text>
<text x="653" y="388" fill="#222632" font-weight="normal">⠠</text>
<text x="681" y="388" fill="#222632" font-weight="normal">⠠</text>
<text x="16" y="402" fill="#c9d1d9" font-weight="normal">│20</text>
<text x="44" y="402" fill="#c9d1d9" font-weight="normal">}</text>
<text x="366" y="402" fill="#c9d1d9" font-weight="normal">│</text>
<text x="387" y="402" fill="#79c0ff" font-weight="normal">─────────────────────────────────────────────</text>
<text x="16" y="416" fill="#c9d1d9" font-weight="normal">│21</text>
<text x="44" y="416" fill="#c9d1d9" font-weight="normal">```</text>
<text x="366" y="416" fill="#c9d1d9" font-weight="normal">│</text>
<text x="401" y="416" fill="#222632" font-weight="normal">⠠</text>
<text x="429" y="416" fill="#222632" font-weight="normal">⠠</text>
<text x="457" y="416" fill="#222632" font-weight="normal">⠠</text>
<text x="485" y="416" fill="#222632" font-weight="normal">⠠</text>
<text x="513" y="416" fill="#222632" font-weight="normal">⠠</text>
<text x="541" y="416" fill="#222632" font-weight="normal">⠠</text>
<text x="569" y="416" fill="#222632" font-weight="normal">⠠</text>
<text x="597" y="416" fill="#222632" font-weight="normal">⠠</text>
<text x="625" y="416" fill="#222632" font-weight="normal">⠠</text>
<text x="653" y="416" fill="#222632" font-weight="normal">⠠</text>
<text x="681" y="416" fill="#222632" font-weight="normal">⠠</text>
<text x="23" y="430" fill="#c9d1d9" font-weight="normal">INSERT</text>
<text x="79" y="430" fill="#c9d1d9" font-weight="normal">1:1</text>
<text x="114" y="430" fill="#c9d1d9" font-weight="normal">hero.md</text>
<text x="170" y="430" fill="#c9d1d9" font-weight="normal">—</text>
<text x="184" y="430" fill="#c9d1d9" font-weight="normal">terra</text>
<text x="240" y="430" fill="#c9d1d9" font-weight="normal">188</text>
<text x="268" y="430" fill="#c9d1d9" font-weight="normal">words</text>
<text x="310" y="430" fill="#c9d1d9" font-weight="normal">·</text>
<text x="324" y="430" fill="#c9d1d9" font-weight="normal">48L</text>
<text x="352" y="430" fill="#c9d1d9" font-weight="normal">·</text>
<text x="366" y="430" fill="#c9d1d9" font-weight="normal">rev:0</text>
</g></svg>